<svg width="19" height="20" viewBox="0 0 19 20" fill="none" xmlns="http://www.w3.org/2000/svg">
<path d="M9.21085 5.16935C6.59767 5.16935 4.48987 7.27715 4.48987 9.89034C4.48987 12.5035 6.59767 14.6113 9.21085 14.6113C11.824 14.6113 13.9318 12.5035 13.9318 9.89034C13.9318 7.27715 11.824 5.16935 9.21085 5.16935ZM9.21085 12.9596C7.52214 12.9596 6.14159 11.5832 6.14159 9.89034C6.14159 8.19752 7.51803 6.82108 9.21085 6.82108C10.9037 6.82108 12.2801 8.19752 12.2801 9.89034C12.2801 11.5832 10.8996 12.9596 9.21085 12.9596ZM15.2261 4.97624C15.2261 5.58845 14.733 6.07739 14.1249 6.07739C13.5127 6.07739 13.0238 5.58434 13.0238 4.97624C13.0238 4.36814 13.5168 3.87509 14.1249 3.87509C14.733 3.87509 15.2261 4.36814 15.2261 4.97624ZM18.3529 6.09383C18.283 4.61877 17.9461 3.31218 16.8655 2.23568C15.789 1.15918 14.4824 0.822265 13.0074 0.748307C11.4871 0.662023 6.93048 0.662023 5.41023 0.748307C3.93929 0.818156 2.6327 1.15508 1.55209 2.23158C0.471482 3.30807 0.138671 4.61467 0.0647132 6.08972C-0.0215711 7.60996 -0.0215711 12.1666 0.0647132 13.6868C0.134562 15.1619 0.471482 16.4685 1.55209 17.545C2.6327 18.6215 3.93518 18.9584 5.41023 19.0324C6.93048 19.1186 11.4871 19.1186 13.0074 19.0324C14.4824 18.9625 15.789 18.6256 16.8655 17.545C17.942 16.4685 18.2789 15.1619 18.3529 13.6868C18.4392 12.1666 18.4392 7.61407 18.3529 6.09383ZM16.3889 15.318C16.0684 16.1234 15.448 16.7438 14.6385 17.0684C13.4265 17.5491 10.5503 17.4382 9.21085 17.4382C7.87139 17.4382 4.99114 17.545 3.78316 17.0684C2.97784 16.7479 2.35741 16.1275 2.03282 15.318C1.55209 14.1059 1.66303 11.2298 1.66303 9.89034C1.66303 8.55088 1.5562 5.67062 2.03282 4.46264C2.3533 3.65732 2.97373 3.0369 3.78316 2.7123C4.99525 2.23158 7.87139 2.34251 9.21085 2.34251C10.5503 2.34251 13.4306 2.23568 14.6385 2.7123C15.4439 3.03279 16.0643 3.65321 16.3889 4.46264C16.8696 5.67473 16.7587 8.55087 16.7587 9.89034C16.7587 11.2298 16.8696 14.1101 16.3889 15.318Z" fill="#161722"/>
</svg>
