<svg width="17" height="18" viewBox="0 0 17 18" fill="none" xmlns="http://www.w3.org/2000/svg">
<path d="M15.4736 0.755859H1.52378C0.884583 0.755859 0.365234 1.28247 0.365234 1.92893V15.8533C0.365234 16.4998 0.884583 17.0264 1.52378 17.0264H15.4736C16.1128 17.0264 16.6357 16.4998 16.6357 15.8533V1.92893C16.6357 1.28247 16.1128 0.755859 15.4736 0.755859ZM5.2827 14.702H2.87118V6.9372H5.28634V14.702H5.2827ZM4.07694 5.87671C3.30337 5.87671 2.6787 5.24841 2.6787 4.47846C2.6787 3.70852 3.30337 3.08022 4.07694 3.08022C4.84689 3.08022 5.47519 3.70852 5.47519 4.47846C5.47519 5.25204 4.85052 5.87671 4.07694 5.87671ZM14.3223 14.702H11.9108V10.9249C11.9108 10.0242 11.8926 8.86569 10.6578 8.86569C9.40118 8.86569 9.20869 9.84628 9.20869 10.8596V14.702H6.79717V6.9372H9.11063V7.99769H9.14332C9.46655 7.38754 10.2547 6.74471 11.4277 6.74471C13.8683 6.74471 14.3223 8.35361 14.3223 10.4455V14.702Z" fill="#161722"/>
</svg>
