<svg width="21" height="18" viewBox="0 0 21 18" fill="none" xmlns="http://www.w3.org/2000/svg">
<path d="M18.4572 4.81053C18.4699 4.98847 18.4699 5.16645 18.4699 5.34439C18.4699 10.7718 14.339 17.0255 6.78885 17.0255C4.46279 17.0255 2.302 16.3518 0.484375 15.1824C0.814863 15.2205 1.1326 15.2333 1.4758 15.2333C3.39507 15.2333 5.16188 14.585 6.57276 13.4792C4.76785 13.4411 3.25528 12.259 2.73414 10.632C2.98837 10.6701 3.24257 10.6956 3.50952 10.6956C3.87811 10.6956 4.24675 10.6447 4.58991 10.5558C2.70875 10.1744 1.29782 8.52204 1.29782 6.52647V6.47565C1.84436 6.78071 2.47994 6.97136 3.15356 6.99676C2.04773 6.25953 1.32325 5.00119 1.32325 3.57759C1.32325 2.81497 1.52659 2.11588 1.8825 1.50577C3.9035 3.99705 6.94136 5.62398 10.3478 5.80196C10.2842 5.4969 10.2461 5.17917 10.2461 4.8614C10.2461 2.59888 12.0764 0.755859 14.3516 0.755859C15.5337 0.755859 16.6014 1.25157 17.3513 2.05234C18.2792 1.8744 19.1689 1.5312 19.957 1.06092C19.6519 2.01424 19.0037 2.81501 18.1521 3.32339C18.9783 3.23446 19.7791 3.00562 20.5163 2.68789C19.9571 3.50133 19.258 4.22581 18.4572 4.81053Z" fill="#161722"/>
</svg>
