<svg width="24" height="18" viewBox="0 0 24 18" fill="none" xmlns="http://www.w3.org/2000/svg">
<path d="M22.8638 3.30349C22.5977 2.30145 21.8136 1.51228 20.8181 1.24447C19.0136 0.757812 11.7777 0.757812 11.7777 0.757812C11.7777 0.757812 4.54184 0.757812 2.73729 1.24447C1.74173 1.51233 0.957648 2.30145 0.691527 3.30349C0.208008 5.11973 0.208008 8.90916 0.208008 8.90916C0.208008 8.90916 0.208008 12.6986 0.691527 14.5148C0.957648 15.5169 1.74173 16.2732 2.73729 16.541C4.54184 17.0276 11.7777 17.0276 11.7777 17.0276C11.7777 17.0276 19.0135 17.0276 20.8181 16.541C21.8136 16.2732 22.5977 15.5169 22.8638 14.5148C23.3473 12.6986 23.3473 8.90916 23.3473 8.90916C23.3473 8.90916 23.3473 5.11973 22.8638 3.30349ZM9.41113 12.3497V5.46865L15.4589 8.90925L9.41113 12.3497Z" fill="#161722"/>
</svg>
