<svg width="185" height="50" viewBox="0 0 185 50" fill="none" xmlns="http://www.w3.org/2000/svg">
<path d="M23.8 49.749H0.7V47.499C2.75 47.499 4.275 47.324 5.275 46.974C6.325 46.624 7.025 45.924 7.375 44.874C7.775 43.824 7.975 42.274 7.975 40.224V9.54902C7.975 7.54902 7.775 6.07402 7.375 5.12402C7.025 4.12402 6.325 3.47402 5.275 3.17402C4.275 2.87402 2.75 2.72402 0.7 2.72402V0.474023H20.95C25.4 0.474023 28.975 0.949023 31.675 1.89902C34.375 2.79902 36.325 4.12402 37.525 5.87402C38.725 7.57402 39.325 9.67402 39.325 12.174C39.325 15.524 38.325 18.049 36.325 19.749C34.325 21.399 31.775 22.649 28.675 23.499V23.799C30.825 24.149 32.875 24.799 34.825 25.749C36.825 26.699 38.475 28.049 39.775 29.799C41.075 31.499 41.725 33.724 41.725 36.474C41.725 40.724 40.125 43.999 36.925 46.299C33.775 48.599 29.4 49.749 23.8 49.749ZM20.275 46.974C21.875 46.974 23.475 46.874 25.075 46.674C26.675 46.474 28.125 46.049 29.425 45.399C30.775 44.699 31.85 43.674 32.65 42.324C33.45 40.924 33.85 39.024 33.85 36.624C33.85 33.774 33.175 31.574 31.825 30.024C30.525 28.424 28.825 27.324 26.725 26.724C24.675 26.074 22.475 25.749 20.125 25.749H14.875V46.749C15.775 46.799 16.675 46.849 17.575 46.899C18.475 46.949 19.375 46.974 20.275 46.974ZM14.875 3.62402V22.599H19.975C24.525 22.599 27.65 21.824 29.35 20.274C31.05 18.674 31.9 16.174 31.9 12.774C31.9 9.82402 30.95 7.52402 29.05 5.87402C27.2 4.22402 23.975 3.39902 19.375 3.39902C18.675 3.39902 17.925 3.42402 17.125 3.47402C16.375 3.47402 15.625 3.52402 14.875 3.62402ZM87.1123 49.749H47.0623V47.499C49.1123 47.499 50.6373 47.374 51.6373 47.124C52.6873 46.824 53.3873 46.199 53.7373 45.249C54.1373 44.299 54.3373 42.849 54.3373 40.899V9.62402C54.3373 7.72402 54.1373 6.27402 53.7373 5.27402C53.3873 4.27402 52.6873 3.59902 51.6373 3.24902C50.6373 2.89902 49.1123 2.72402 47.0623 2.72402V0.474023H86.4373L86.8873 12.774H84.4873C84.1373 10.274 83.5873 8.39902 82.8373 7.14902C82.1373 5.84902 80.9623 4.97402 79.3123 4.52402C77.7123 4.07402 75.3623 3.84902 72.2623 3.84902H61.2373V22.899H70.0123C72.3123 22.899 74.0623 22.699 75.2623 22.299C76.4623 21.899 77.2873 21.149 77.7373 20.049C78.1873 18.949 78.4123 17.399 78.4123 15.399H80.8123V32.799H78.4123C78.4123 30.749 78.1873 29.224 77.7373 28.224C77.2873 27.224 76.4623 26.574 75.2623 26.274C74.0623 25.974 72.3123 25.824 70.0123 25.824H61.2373V46.449H70.9123C73.8123 46.449 76.1373 46.324 77.8873 46.074C79.6873 45.774 81.0873 45.249 82.0873 44.499C83.1373 43.749 83.9873 42.674 84.6373 41.274C85.3373 39.874 86.0623 38.049 86.8123 35.799H89.2123L87.1123 49.749ZM115.611 49.749H94.5355V47.499C96.4355 47.499 97.8605 47.349 98.8105 47.049C99.7605 46.749 100.386 46.099 100.686 45.099C101.036 44.099 101.211 42.549 101.211 40.449V8.27402C101.211 6.87402 101.061 5.77402 100.761 4.97402C100.511 4.17402 99.9105 3.59902 98.9605 3.24902C98.0105 2.89902 96.5355 2.72402 94.5355 2.72402V0.474023H112.986C116.736 0.474023 120.061 0.849023 122.961 1.59902C125.911 2.29902 128.211 3.54902 129.861 5.34902C131.511 7.09902 132.336 9.57402 132.336 12.774C132.336 15.574 131.686 17.849 130.386 19.599C129.136 21.349 127.536 22.724 125.586 23.724C123.686 24.674 121.711 25.399 119.661 25.899V26.199C120.511 26.699 121.461 27.574 122.511 28.824C123.611 30.024 125.011 31.824 126.711 34.224C128.411 36.574 130.636 39.724 133.386 43.674C134.586 45.324 135.736 46.374 136.836 46.824C137.986 47.274 139.411 47.499 141.111 47.499V49.749H128.736C126.686 46.649 124.961 44.074 123.561 42.024C122.211 39.924 121.061 38.174 120.111 36.774C119.161 35.324 118.311 34.049 117.561 32.949C116.811 31.849 116.061 30.749 115.311 29.649C114.561 28.499 113.861 27.799 113.211 27.549C112.611 27.299 111.636 27.174 110.286 27.174H108.186V40.449C108.186 42.499 108.361 44.049 108.711 45.099C109.061 46.099 109.761 46.749 110.811 47.049C111.861 47.349 113.461 47.499 115.611 47.499V49.749ZM108.186 24.249L111.036 24.324C113.786 24.174 116.186 23.724 118.236 22.974C120.286 22.224 121.886 21.049 123.036 19.449C124.186 17.849 124.761 15.724 124.761 13.074C124.761 10.074 123.836 7.72402 121.986 6.02402C120.136 4.27402 117.186 3.39902 113.136 3.39902C112.336 3.39902 111.511 3.42402 110.661 3.47402C109.811 3.47402 108.986 3.52402 108.186 3.62402V24.249ZM166.549 49.749H143.449V47.499C145.499 47.499 147.024 47.324 148.024 46.974C149.074 46.624 149.774 45.924 150.124 44.874C150.524 43.824 150.724 42.274 150.724 40.224V9.54902C150.724 7.54902 150.524 6.07402 150.124 5.12402C149.774 4.12402 149.074 3.47402 148.024 3.17402C147.024 2.87402 145.499 2.72402 143.449 2.72402V0.474023H163.699C168.149 0.474023 171.724 0.949023 174.424 1.89902C177.124 2.79902 179.074 4.12402 180.274 5.87402C181.474 7.57402 182.074 9.67402 182.074 12.174C182.074 15.524 181.074 18.049 179.074 19.749C177.074 21.399 174.524 22.649 171.424 23.499V23.799C173.574 24.149 175.624 24.799 177.574 25.749C179.574 26.699 181.224 28.049 182.524 29.799C183.824 31.499 184.474 33.724 184.474 36.474C184.474 40.724 182.874 43.999 179.674 46.299C176.524 48.599 172.149 49.749 166.549 49.749ZM163.024 46.974C164.624 46.974 166.224 46.874 167.824 46.674C169.424 46.474 170.874 46.049 172.174 45.399C173.524 44.699 174.599 43.674 175.399 42.324C176.199 40.924 176.599 39.024 176.599 36.624C176.599 33.774 175.924 31.574 174.574 30.024C173.274 28.424 171.574 27.324 169.474 26.724C167.424 26.074 165.224 25.749 162.874 25.749H157.624V46.749C158.524 46.799 159.424 46.849 160.324 46.899C161.224 46.949 162.124 46.974 163.024 46.974ZM157.624 3.62402V22.599H162.724C167.274 22.599 170.399 21.824 172.099 20.274C173.799 18.674 174.649 16.174 174.649 12.774C174.649 9.82402 173.699 7.52402 171.799 5.87402C169.949 4.22402 166.724 3.39902 162.124 3.39902C161.424 3.39902 160.674 3.42402 159.874 3.47402C159.124 3.47402 158.374 3.52402 157.624 3.62402Z" fill="#161722"/>
</svg>
