<svg width="20" height="20" viewBox="0 0 20 20" fill="none" xmlns="http://www.w3.org/2000/svg">
<path d="M18.4332 1.75933L14.7292 0.904567C14.3268 0.811968 13.9136 1.0221 13.7498 1.39962L12.0403 5.38849C11.8907 5.73752 11.9904 6.14709 12.286 6.38571L14.4443 8.15222C13.1621 10.8839 10.922 13.1561 8.1333 14.4632L6.3668 12.3049C6.12462 12.0093 5.71861 11.9096 5.36958 12.0592L1.3807 13.7687C0.999621 13.9361 0.789493 14.3492 0.882092 14.7517L1.73685 18.4556C1.82589 18.8403 2.16779 19.1181 2.57024 19.1181C11.6912 19.1181 19.0956 11.728 19.0956 2.59272C19.0956 2.19383 18.8214 1.84836 18.4332 1.75933Z" fill="#C6C6C7"/>
</svg>
